<svg width="60" height="60" viewBox="0 0 60 60" xmlns="http://www.w3.org/2000/svg">
    <defs>
        <!-- 三维立体渐变 -->
        <linearGradient id="cyberGradient" x1="30%" y1="0%" x2="70%" y2="100%">
            <stop offset="0%" stop-color="#00f7ff"/>
            <stop offset="50%" stop-color="#6a00ff"/>
            <stop offset="100%" stop-color="#ff00d4"/>
        </linearGradient>

        <!-- 背景渐变组 -->
        <radialGradient id="bgGradient1" cx="30%" cy="40%" r="70%">
            <stop offset="0%" stop-color="#1a0f3b"/>
            <stop offset="100%" stop-color="#0d0522"/>
        </radialGradient>
        <linearGradient id="bgGradient2" x1="100%" y1="100%" x2="0%" y2="0%">
            <stop offset="40%" stop-color="#2e1b5e" stop-opacity="0.6"/>
            <stop offset="100%" stop-color="transparent"/>
        </linearGradient>

        <!-- 立体投影滤镜 -->
        <filter id="depthShadow" x="-20%" y="-20%" width="140%" height="140%">
            <feDropShadow dx="2" dy="2" stdDeviation="2" flood-color="#00f7ff"/>
            <feDropShadow dx="-2" dy="-2" stdDeviation="2" flood-color="#ff00d4"/>
        </filter>
    </defs>

    <!-- 多层渐变背景 -->
    <rect width="60" height="60" fill="url(#bgGradient1)"/>
    <rect width="60" height="60" fill="url(#bgGradient2)"/>

    <!-- 微纹理图案 -->
    <g opacity="0.15">
        <path d="M0 0l60 60M60 0L0 60" stroke="#4a3780" stroke-width="0.8"/>
        <circle cx="45" cy="20" r="1.5" fill="#6a00ff"/>
        <circle cx="15" cy="50" r="2" fill="#00f7ff"/>
    </g>

    <!-- 主文字立体效果 -->
    <text x="50%" y="45%"
          font-family="'Agency FB', sans-serif"
          font-size="28"
          font-weight="700"
          text-anchor="middle"
          dominant-baseline="central"
          fill="url(#cyberGradient)"
          filter="url(#depthShadow)"
          style="letter-spacing: 2px">
        CEF
    </text>

    <!-- 跳跃轨迹表现 -->
    <g transform="translate(15 45)">
        <path d="M15 0L25 10 5 10Z" fill="#6a00ff"/>
        <path d="M0 15 Q15 -10 30 15"
              stroke="url(#cyberGradient)"
              stroke-width="2"
              fill="none"
              stroke-linecap="round"/>
        <circle cx="30" cy="15" r="4" fill="#ff00d4" filter="url(#depthShadow)"/>
    </g>

    <!-- 科技装饰元素 -->
    <g transform="translate(50 50)">
        <rect x="-5" y="-5" width="10" height="10"
              fill="#00f7ff"
              transform="rotate(45)"
              opacity="0.8"/>
        <circle cx="8" cy="8" r="3" fill="#6a00ff" opacity="0.6"/>
    </g>
</svg>